<svg version="1.1"
    xmlns="http://www.w3.org/2000/svg" viewBox="-49 27 48 48" height="16">
    <path fill="#FFC63D" d="M-3,50.9c0-12.2-9.8-22-22-22c-12.2,0-22,9.8-22,22c0,12.1,9.8,22,22,22  C-12.9,72.9-3,63-3,50.9"/>
    <path fill='#FFAE33' d="M-25,28.9c12.2,0,22,9.8,22,22c0,12.1-9.8,22-22,22"/>
    <path fill='#FF9416' d="M-25,75.1c-6.4,0-12.4-2.5-17-7c-4.5-4.5-7-10.6-7-17c0-6.4,2.5-12.4,7-17  c4.5-4.5,10.6-7,17-7s12.4,2.5,17,7c4.5,4.5,7,10.6,7,17c0,6.4-2.5,12.4-7,17C-12.5,72.6-18.6,75.1-25,75.1 M-25,31.1  c-11,0-20,9-20,20c0,11,9,20,20,20c11,0,20-9,20-20C-5,40.1-13.9,31.1-25,31.1"/>
    <polygon fill='#DD6307' points="-12.1,45.7 -10,42.4 -21.6,44.5 -25.1,58.6 -28.6,44.5 -40.1,42.4 -38,45.7 -30.8,46.7   -29.9,49.7 -34.6,49.2 -33,51.8 -29.2,52.2 -25.1,65.8 -21,52.2 -17.1,51.8 -15.5,49.2 -20.2,49.7 -19.3,46.7 "/>
</svg>