
<svg version="1.0" xmlns="http://www.w3.org/2000/svg"
 width="512.000000pt" height="512.000000pt" viewBox="0 0 512.000000 512.000000"
 preserveAspectRatio="xMidYMid meet">

<g transform="translate(0.000000,512.000000) scale(0.100000,-0.100000)"
fill="#000000" stroke="none">
<path d="M1205 3994 c-730 -136 -1237 -768 -1202 -1499 31 -668 498 -1217
1157 -1361 121 -27 449 -27 570 0 548 120 975 528 1111 1062 61 241 61 487 0
728 -136 532 -557 937 -1106 1061 -102 24 -425 29 -530 9z"/>
<path d="M3651 3914 c-195 -52 -370 -252 -487 -555 -137 -355 -173 -873 -89
-1286 64 -312 177 -554 335 -714 95 -97 173 -141 278 -161 256 -48 525 200
666 613 73 215 106 413 113 684 12 431 -73 810 -244 1099 -57 97 -196 240
-269 279 -103 54 -203 68 -303 41z"/>
<path d="M4845 3781 c-94 -39 -174 -326 -216 -776 -16 -168 -16 -711 -1 -885
43 -468 126 -753 228 -784 27 -8 78 32 103 83 191 376 217 1635 45 2166 -35
105 -56 147 -94 179 -34 28 -36 29 -65 17z"/>
</g>
</svg>
