<svg version="1.0" xmlns="http://www.w3.org/2000/svg"  height="18" viewBox="62 62 400.000000 400.000000" preserveAspectRatio="xMidYMid meet">
    <g transform="translate(0.000000,512.000000) scale(0.100000,-0.100000)" fill="#aaaaff" stroke="none">
    <path d="M940 4424 c-119 -32 -208 -107 -264 -224 l-31 -65 0 -1620 c0 -1276 3 -1629 13 -1662 19 -63 87 -158 142 -198 27 -20 75 -46 107 -58 l58 -22 1550 -3 c1076 -2 1570 1 1615 8 134 22 240 102 302 227 l33 68 0 1630 0 1630 -32 67 c-55 116 -145 191 -270 223 -85 22 -3139 21 -3223 -1z m3051 -228 c-7 -8 -37 -34 -67 -57 -73 -56 -94 -99 -94 -186 1 -37 7 -84 14 -103 61 -158 59 -145 46 -276 -10 -103 -9 -141 6 -265 11 -96 17 -227 18 -394 1 -236 0 -253 -21 -297 -54 -116 -188 -96 -224 35 -13 48 -16 312 -7 772 6 275 8 304 26 335 35 62 60 182 43 209 -8 12 -124 -74 -489 -364 -1 -1 12 -32 29 -68 31 -67 58 -189 58 -262 0 -80 -28 -199 -65 -275 -32 -65 -56 -94 -185 -221 -150 -148 -188 -201 -189 -262 0 -75 65 -154 235 -286 183 -142 262 -241 306 -381 81 -261 -31 -562 -276 -735 -317 -225 -883 -267 -1245 -93 -116 56 -214 153 -267 264 -34 71 -38 89 -41 176 -6 147 30 246 136 376 131 160 407 269 767 304 66 6 122 13 124 14 2 2 -10 25 -27 51 -57 89 -75 142 -75 218 1 39 8 89 16 113 l16 42 -117 0 c-197 0 -328 49 -457 171 -123 117 -181 244 -192 421 l-6 98 -338 2 -339 3 538 467 537 467 909 0 c785 1 907 -1 897 -13z"/>
    <path d="M2363 3800 c-167 -67 -251 -251 -223 -491 35 -305 188 -550 377 -605 176 -51 369 39 435 205 20 49 22 73 22 191 -1 166 -28 282 -104 437 -58 119 -133 204 -220 248 -75 39 -208 46 -287 15z"/>
    <path d="M2485 2029 c-154 -22 -337 -95 -415 -165 -172 -155 -173 -432 -3 -596 236 -227 770 -250 1009 -45 77 67 133 215 120 317 -22 162 -113 280 -348 446 l-76 54 -114 -1 c-62 -1 -140 -5 -173 -10z"/>
    </g>
    </svg>