<svg version="1.0" xmlns="http://www.w3.org/2000/svg" height="16" viewBox="0 0 2400.000000 1968.000000" preserveAspectRatio="xMidYMid meet">

<g transform="translate(0.000000,1968.000000) scale(0.100000,-0.100000)" fill="#ff0000" stroke="none">
<path d="M7563 19666 c-127 -25 -229 -65 -361 -144 -514 -309 -904 -753 -1253 -1427 -48 -93 -158 -325 -244 -515 -958 -2111 -2148 -3865 -3675 -5414 -548 -556 -893 -859 -1435 -1261 -132 -98 -318 -237 -414 -308 l-174 -130 6 -86 c18 -273 145 -671 293 -917 78 -131 127 -196 229 -303 150 -156 325 -268 525 -335 165 -55 238 -67 435 -73 281 -9 500 30 915 161 287 90 393 138 755 341 272 152 371 205 383 205 5 0 -4 -64 -19 -142 -16 -79 -58 -300 -94 -493 -37 -192 -98 -494 -137 -670 -220 -1007 -324 -1658 -385 -2410 -22 -274 -25 -1065 -5 -1300 35 -416 72 -695 127 -973 178 -885 500 -1589 1019 -2222 96 -118 402 -420 516 -511 743 -591 1658 -817 2750 -678 780 99 1549 414 2245 919 625 455 1389 1207 1994 1964 668 837 1178 1668 2158 3521 369 696 1192 2323 1533 3030 90 187 165 342 167 344 20 27 40 -149 153 -1299 143 -1459 282 -2345 456 -2910 107 -345 328 -768 567 -1085 598 -793 1481 -1206 2637 -1232 354 -8 642 17 970 83 369 75 841 220 1167 359 789 337 1401 818 1864 1467 344 480 639 1166 741 1721 20 106 23 155 23 377 0 228 -3 266 -23 360 -45 207 -147 460 -240 597 -173 254 -374 268 -672 45 -41 -31 -221 -182 -400 -337 -698 -603 -947 -801 -1310 -1044 -206 -138 -305 -193 -455 -255 -199 -81 -361 -112 -534 -103 -503 27 -821 450 -896 1190 -45 446 -143 2811 -230 5532 -18 567 -21 646 -41 845 -57 578 -241 1215 -490 1700 -103 201 -242 372 -409 507 -586 472 -1438 517 -2013 106 -114 -81 -278 -250 -354 -363 -31 -47 -302 -560 -603 -1140 -899 -1733 -1529 -2951 -2132 -4120 -605 -1173 -659 -1276 -871 -1660 -770 -1398 -1636 -2740 -2605 -4035 -187 -249 -284 -370 -445 -555 -169 -193 -461 -485 -542 -542 -248 -175 -480 -225 -706 -153 -199 63 -366 243 -462 498 -75 200 -168 637 -204 957 -17 147 -16 701 1 945 100 1454 356 2718 1241 6125 392 1510 692 2734 774 3160 156 806 226 1804 162 2295 -94 714 -384 1200 -902 1511 -174 104 -459 217 -671 264 -116 27 -306 34 -400 16z"/>
</g>
</svg>